#!OML:ASF C:\Vicon Data\Big\jianyuan-13\jianyuan\Session 1\Capture.male.ASF
:FULLY-SPECIFIED
:DEGREES
14
root -7.761911 17.573549 -23.744085 8.795291 9.341335 1.757191
lowerback -13.552186 0.179465 -2.319155 
upperback 1.468085 0.653502 -0.293314 
thorax 9.187364 0.204744 1.136056 
lowerneck -2.466257 -3.504293 2.818820 
upperneck 19.629651 -4.689368 -2.068808 
head 6.230794 -2.222128 -1.407318 
rclavicle 0.000000 0.000000 
rhumerus -39.204547 -18.316683 -76.966022 
rradius 38.292049 
rwrist 23.875822 
rhand -18.488616 -18.424632 
rfingers 0.000000 
rthumb 7.798741 -48.260828 
lclavicle 0.000000 0.000000 
lhumerus -38.286351 28.438318 73.654003 
lradius 28.801552 
lwrist -50.294826 
lhand -18.649461 1.243622 
lfingers 0.000000 
lthumb 7.643515 31.085465 
rfemur -36.508922 5.151305 15.439593 
rtibia 31.036074 
rfoot -5.583269 -8.176565 
rtoes -32.976051 
lfemur 2.751180 -2.834714 -26.138033 
ltibia 18.799662 
lfoot -21.870793 1.295729 
ltoes -37.820935 
15
root -7.764422 17.573694 -23.725724 8.816944 9.294822 1.768713
lowerback -13.543591 0.179786 -2.313633 
upperback 1.470764 0.651858 -0.282841 
thorax 9.185326 0.203937 1.143752 
lowerneck -2.453444 -3.489115 2.817130 
upperneck 19.579860 -4.665356 -2.083100 
head 6.212955 -2.212240 -1.408996 
rclavicle 0.000000 0.000000 
rhumerus -39.198481 -18.284902 -76.987790 
rradius 38.290845 
rwrist 23.848152 
rhand -18.570507 -18.402341 
rfingers 0.000000 
rthumb 7.719705 -48.241422 
lclavicle 0.000000 0.000000 
lhumerus -38.315459 28.478843 73.626995 
lradius 28.795102 
lwrist -50.258094 
lhand -18.693276 1.270712 
lfingers 0.000000 
lthumb 7.601217 31.114079 
rfemur -36.476726 5.121786 15.474938 
rtibia 31.057141 
rfoot -5.695641 -8.088960 
rtoes -32.916628 
lfemur 2.752345 -2.820723 -26.136974 
ltibia 18.887037 
lfoot -21.841930 1.334715 
ltoes -38.100543 
16
root -7.767185 17.574169 -23.708238 8.837250 9.254690 1.787523
lowerback -13.512348 0.180086 -2.312957 
upperback 1.462679 0.650726 -0.278756 
thorax 9.158490 0.203724 1.147185 
lowerneck -2.432739 -3.471695 2.832681 
upperneck 19.539344 -4.637551 -2.108988 
head 6.196054 -2.200057 -1.416966 
rclavicle 0.000000 0.000000 
rhumerus -39.225635 -18.280052 -76.997158 
rradius 38.295933 
rwrist 23.849531 
rhand -18.681357 -18.352409 
rfingers 0.000000 
rthumb 7.612726 -48.195341 
lclavicle 0.000000 0.000000 
lhumerus -38.364583 28.524543 73.586859 
lradius 28.804327 
lwrist -50.171354 
lhand -18.794045 1.337365 
lfingers 0.000000 
lthumb 7.503948 31.184270 
rfemur -36.445863 5.080875 15.507845 
rtibia 31.082773 
rfoot -5.794749 -8.007766 
rtoes -32.855996 
lfemur 2.756544 -2.818155 -26.141302 
ltibia 18.972207 
lfoot -21.827093 1.379788 
ltoes -38.398663 
17
root -7.769394 17.574472 -23.689627 8.852754 9.191592 1.788821
lowerback -13.506737 0.193232 -2.293032 
upperback 1.468035 0.664055 -0.269990 
thorax 9.160696 0.210831 1.148115 
lowerneck -2.434865 -3.461739 2.850367 
upperneck 19.500361 -4.618636 -2.147531 
head 6.182947 -2.192942 -1.430319 
rclavicle 0.000000 0.000000 
rhumerus -39.239401 -18.268499 -76.998217 
rradius 38.305991 
rwrist 23.861875 
rhand -18.730728 -18.343959 
rfingers 0.000000 
rthumb 7.565078 -48.188615 
lclavicle 0.000000 0.000000 
lhumerus -38.378406 28.546556 73.582126 
lradius 28.795203 
lwrist -50.119499 
lhand -18.905793 1.444185 
lfingers 0.000000 
lthumb 7.396086 31.294910 
rfemur -36.414756 5.062376 15.555030 
rtibia 31.111656 
rfoot -5.890741 -7.927131 
rtoes -32.775695 
lfemur 2.766311 -2.797252 -26.134920 
ltibia 19.058904 
lfoot -21.815552 1.418877 
ltoes -38.618393 
18
root -7.771084 17.574612 -23.669956 8.863739 9.106882 1.773639
lowerback -13.525250 0.218467 -2.254990 
upperback 1.486040 0.690991 -0.256821 
thorax 9.190233 0.224825 1.146688 
lowerneck -2.458479 -3.458806 2.870064 
upperneck 19.462823 -4.608088 -2.197981 
head 6.173411 -2.190596 -1.448739 
rclavicle 0.000000 0.000000 
rhumerus -39.240566 -18.250639 -76.991455 
rradius 38.320727 
rwrist 23.884538 
rhand -18.722241 -18.374549 
rfingers 0.000000 
rthumb 7.573267 -48.218925 
lclavicle 0.000000 0.000000 
lhumerus -38.359008 28.546276 73.610711 
lradius 28.768810 
lwrist -50.100473 
lhand -19.027873 1.588808 
lfingers 0.000000 
lthumb 7.278253 31.443617 
rfemur -36.383420 5.064968 15.615651 
rtibia 31.143598 
rfoot -5.983798 -7.847023 
rtoes -32.676883 
lfemur 2.781317 -2.759093 -26.118459 
ltibia 19.147037 
lfoot -21.807112 1.452335 
ltoes -38.764349 
19
root -7.773353 17.574992 -23.650536 8.883800 9.038075 1.743684
lowerback -13.545709 0.238468 -2.207523 
upperback 1.501510 0.708743 -0.236983 
thorax 9.218479 0.234731 1.145169 
lowerneck -2.480431 -3.455039 2.876875 
upperneck 19.414308 -4.600450 -2.218525 
head 6.161222 -2.188457 -1.455518 
rclavicle 0.000000 0.000000 
rhumerus -39.221799 -18.242562 -76.979707 
rradius 38.323530 
rwrist 23.829441 
rhand -18.695974 -18.360884 
rfingers 0.000000 
rthumb 7.598623 -48.204353 
lclavicle 0.000000 0.000000 
lhumerus -38.352246 28.559551 73.629066 
lradius 28.748874 
lwrist -50.139875 
lhand -19.113198 1.706313 
lfingers 0.000000 
lthumb 7.195899 31.563975 
rfemur -36.363517 5.087038 15.685308 
rtibia 31.177590 
rfoot -6.082544 -7.794664 
rtoes -32.600499 
lfemur 2.781976 -2.729370 -26.078840 
ltibia 19.230993 
lfoot -21.767642 1.472725 
ltoes -38.847683 
20
root -7.776608 17.575781 -23.631542 8.919270 8.996269 1.688650
lowerback -13.569473 0.249582 -2.144055 
upperback 1.512677 0.710902 -0.205825 
thorax 9.244536 0.237696 1.143492 
lowerneck -2.499561 -3.449857 2.861808 
upperneck 19.347157 -4.597753 -2.188297 
head 6.144528 -2.186667 -1.442536 
rclavicle 0.000000 0.000000 
rhumerus -39.169193 -18.251091 -76.959492 
rradius 38.306077 
rwrist 23.642335 
rhand -18.639521 -18.272089 
rfingers 0.000000 
rthumb 7.653123 -48.113586 
lclavicle 0.000000 0.000000 
lhumerus -38.366939 28.595839 73.630052 
lradius 28.739901 
lwrist -50.278466 
lhand -19.136125 1.777783 
lfingers 0.000000 
lthumb 7.173777 31.636204 
rfemur -36.363024 5.142174 15.770307 
rtibia 31.215061 
rfoot -6.190947 -7.789413 
rtoes -32.562191 
lfemur 2.758281 -2.713968 -25.999905 
ltibia 19.307857 
lfoot -21.675494 1.470930 
ltoes -38.824708 
21
root -7.779775 17.576481 -23.612117 8.943178 8.948939 1.646929
lowerback -13.578214 0.259600 -2.089892 
upperback 1.523468 0.713336 -0.181047 
thorax 9.261498 0.240627 1.140126 
lowerneck -2.496766 -3.441368 2.867321 
upperneck 19.276108 -4.587367 -2.182563 
head 6.121830 -2.181557 -1.439689 
rclavicle 0.000000 0.000000 
rhumerus -39.132612 -18.270616 -76.943778 
rradius 38.301739 
rwrist 23.528842 
rhand -18.573412 -18.188760 
rfingers 0.000000 
rthumb 7.716934 -48.027930 
lclavicle 0.000000 0.000000 
lhumerus -38.396407 28.645399 73.605218 
lradius 28.738554 
lwrist -50.383498 
lhand -19.112742 1.786541 
lfingers 0.000000 
lthumb 7.196340 31.644176 
rfemur -36.350357 5.198174 15.841164 
rtibia 31.255025 
rfoot -6.300688 -7.783327 
rtoes -32.509855 
lfemur 2.749497 -2.693645 -25.937825 
ltibia 19.386340 
lfoot -21.591930 1.480657 
ltoes -38.863907 
22
root -7.782774 17.577008 -23.591867 8.944881 8.891004 1.630776
lowerback -13.558107 0.267511 -2.053597 
upperback 1.533538 0.716297 -0.168521 
thorax 9.260997 0.243496 1.133513 
lowerneck -2.451869 -3.426527 2.912355 
upperneck 19.197577 -4.562213 -2.223866 
head 6.087604 -2.170073 -1.456303 
rclavicle 0.000000 0.000000 
rhumerus -39.126807 -18.311254 -76.936706 
rradius 38.322585 
rwrist 23.556708 
rhand -18.488758 -18.115929 
rfingers 0.000000 
rthumb 7.798627 -47.952090 
lclavicle 0.000000 0.000000 
lhumerus -38.454250 28.720447 73.530803 
lradius 28.751854 
lwrist -50.424083 
lhand -19.000434 1.674871 
lfingers 0.000000 
lthumb 7.304711 31.528753 
rfemur -36.314310 5.255832 15.884863 
rtibia 31.299780 
rfoot -6.412996 -7.775637 
rtoes -32.430585 
lfemur 2.769346 -2.663874 -25.908112 
ltibia 19.467932 
lfoot -21.524851 1.512507 
ltoes -39.022501 
23
root -7.785363 17.577774 -23.570631 8.911087 8.824788 1.623775
lowerback -13.507261 0.282451 -2.021268 
upperback 1.554851 0.728810 -0.156850 
thorax 9.254726 0.250790 1.129952 
lowerneck -2.410196 -3.413390 2.935826 
upperneck 19.117729 -4.539801 -2.252312 
head 6.054339 -2.160433 -1.465513 
rclavicle 0.000000 0.000000 
rhumerus -39.137738 -18.324109 -76.933582 
rradius 38.348925 
rwrist 23.589743 
rhand -18.440934 -18.132846 
rfingers 0.000000 
rthumb 7.844773 -47.967299 
lclavicle 0.000000 0.000000 
lhumerus -38.495341 28.773741 73.487592 
lradius 28.751432 
lwrist -50.419336 
lhand -18.865624 1.527682 
lfingers 0.000000 
lthumb 7.434829 31.376996 
rfemur -36.233536 5.293380 15.930906 
rtibia 31.343588 
rfoot -6.517263 -7.734478 
rtoes -32.398333 
lfemur 2.832480 -2.663177 -25.900486 
ltibia 19.560531 
lfoot -21.499618 1.572241 
ltoes -39.151402 
